<svg width="346" height="315" viewBox="0 0 346 315" fill="none" xmlns="http://www.w3.org/2000/svg">
<path d="M187.951 4.25586H158.049C73.1201 4.25586 4.27148 72.8652 4.27148 157.499C4.27148 242.133 73.1201 310.742 158.049 310.742H187.951C272.88 310.742 341.728 242.133 341.728 157.499C341.728 72.8652 272.88 4.25586 187.951 4.25586Z" stroke="white" stroke-width="2"/>
<path d="M217.434 72.3816C227.378 72.3816 235.631 72.2284 242.192 71.9219L241.423 74.9867C237.63 75.1911 234.811 75.5997 232.965 76.2127C231.223 76.8257 229.787 78.0005 228.66 79.7373C227.634 81.474 226.609 84.2835 225.584 88.1657L209.284 149.769C208.463 153.243 208.053 155.695 208.053 157.125C208.053 159.373 208.771 160.854 210.206 161.569C211.744 162.284 214.461 162.744 218.357 162.948L217.741 166.013C211.283 165.707 203.081 165.553 193.137 165.553C181.962 165.553 173.761 165.707 168.533 166.013L169.148 162.948C172.941 162.744 175.709 162.335 177.452 161.722C179.297 161.109 180.732 159.935 181.757 158.198C182.885 156.461 183.962 153.652 184.987 149.769L200.672 91.9967L148.08 166.779C147.157 166.677 145.825 166.626 144.082 166.626C142.339 166.626 141.006 166.677 140.084 166.779L127.32 91.2305L112.096 148.697C111.378 151.557 111.02 153.703 111.02 155.133C111.02 157.687 111.994 159.628 113.941 160.956C115.992 162.182 119.477 162.846 124.398 162.948L123.629 166.013C119.939 165.707 114.198 165.553 106.406 165.553C100.153 165.553 95.3343 165.707 91.9512 166.013L92.5663 162.948C97.5897 162.744 101.178 161.62 103.331 159.577C105.484 157.432 107.278 153.805 108.713 148.697L124.86 88.1657C125.68 84.6921 126.09 82.2403 126.09 80.81C126.09 78.5624 125.321 77.0811 123.783 76.3659C122.348 75.6508 119.682 75.1911 115.787 74.9867L116.556 71.9219C119.734 72.2284 124.296 72.3816 130.242 72.3816C137.316 72.3816 143.467 72.2284 148.695 71.9219L160.382 143.18L210.053 72.3816H217.434Z" fill="white"/>
<path d="M244.531 223.225C242.891 227.822 241.558 232.215 240.533 236.404C239.2 241.001 237.867 247.335 236.535 255.406C229.563 255.1 217.774 254.947 201.166 254.947C179.022 254.947 162.414 255.1 151.342 255.406L152.111 252.341C155.801 252.137 158.569 251.728 160.415 251.115C162.26 250.502 163.695 249.328 164.72 247.591C165.848 245.854 166.925 243.045 167.95 239.162L184.404 178.478C185.327 174.596 185.788 172.093 185.788 170.969C185.788 168.824 185.019 167.394 183.481 166.678C182.046 165.963 179.381 165.504 175.485 165.299L176.254 162.234C181.482 162.541 189.889 162.694 201.473 162.694C211.213 162.694 219.209 162.541 225.463 162.234L224.694 165.299C220.901 165.504 218.081 165.912 216.236 166.525C214.493 167.138 213.058 168.313 211.93 170.05C210.905 171.787 209.88 174.596 208.855 178.478L192.247 239.162C191.427 242.636 191.016 245.139 191.016 246.671C191.016 248.817 191.683 250.247 193.016 250.962C194.348 251.575 196.758 251.882 200.243 251.882H206.702C213.468 251.882 219.875 249.583 225.924 244.986C232.075 240.388 237.099 233.135 240.994 223.225H244.531Z" fill="white"/>
</svg>
