<svg width="52" height="52" viewBox="0 0 52 52" fill="none" xmlns="http://www.w3.org/2000/svg">
<path d="M12.5373 24.54C10.2506 24.54 8.1973 24.0267 6.37731 23C4.5573 21.9733 3.13397 20.55 2.1073 18.73C1.08064 16.91 0.567305 14.8567 0.567305 12.57C0.567305 10.2833 1.08064 8.23 2.1073 6.41C3.13397 4.59 4.5573 3.16666 6.37731 2.14C8.1973 1.11333 10.2506 0.599998 12.5373 0.599998C14.9173 0.599998 16.994 1.11333 18.7673 2.14C20.5873 3.16666 21.9873 4.59 22.9673 6.41C23.994 8.18333 24.5073 10.2367 24.5073 12.57C24.5073 14.8567 23.994 16.91 22.9673 18.73C21.9873 20.55 20.5873 21.9733 18.7673 23C16.994 24.0267 14.9173 24.54 12.5373 24.54ZM12.5373 21.32C13.4706 21.32 14.264 21.0167 14.9173 20.41C15.5706 19.8033 16.0606 18.87 16.3873 17.61C16.7606 16.3033 16.9473 14.6233 16.9473 12.57C16.9473 10.5167 16.7606 8.86 16.3873 7.6C16.0606 6.29333 15.5706 5.36 14.9173 4.8C14.264 4.19333 13.4706 3.89 12.5373 3.89C11.6506 3.89 10.8806 4.19333 10.2273 4.8C9.57397 5.36 9.06064 6.29333 8.68731 7.6C8.36064 8.86 8.19731 10.5167 8.19731 12.57C8.19731 14.6233 8.36064 16.3033 8.68731 17.61C9.06064 18.87 9.57397 19.8033 10.2273 20.41C10.8806 21.0167 11.6506 21.32 12.5373 21.32ZM39.3473 51.7C37.0606 51.7 35.0073 51.1867 33.1873 50.16C31.3673 49.1333 29.944 47.71 28.9173 45.89C27.8906 44.07 27.3773 42.0167 27.3773 39.73C27.3773 37.4433 27.8906 35.39 28.9173 33.57C29.944 31.75 31.3673 30.3267 33.1873 29.3C35.0073 28.2733 37.0606 27.76 39.3473 27.76C41.7273 27.76 43.804 28.2733 45.5773 29.3C47.3973 30.3267 48.7973 31.75 49.7773 33.57C50.804 35.3433 51.3173 37.3967 51.3173 39.73C51.3173 42.0167 50.804 44.07 49.7773 45.89C48.7973 47.71 47.3973 49.1333 45.5773 50.16C43.804 51.1867 41.7273 51.7 39.3473 51.7ZM2.7373 51L44.2473 1.3H49.7073L8.19731 51H2.7373ZM39.3473 48.48C40.2806 48.48 41.074 48.1767 41.7273 47.57C42.3806 46.9633 42.8706 46.03 43.1973 44.77C43.5706 43.4633 43.7573 41.7833 43.7573 39.73C43.7573 37.6767 43.5706 36.02 43.1973 34.76C42.8706 33.4533 42.3806 32.52 41.7273 31.96C41.074 31.3533 40.2806 31.05 39.3473 31.05C38.4606 31.05 37.6906 31.3533 37.0373 31.96C36.384 32.52 35.8706 33.4533 35.4973 34.76C35.1706 36.02 35.0073 37.6767 35.0073 39.73C35.0073 41.7833 35.1706 43.4633 35.4973 44.77C35.8706 46.03 36.384 46.9633 37.0373 47.57C37.6906 48.1767 38.4606 48.48 39.3473 48.48Z" fill="#FF0099"/>
</svg>
