<svg width="43" height="44" viewBox="0 0 43 44" fill="none" xmlns="http://www.w3.org/2000/svg">
<path fill-rule="evenodd" clip-rule="evenodd" d="M28.8597 16.3639C28.8597 18.4044 28.0491 20.3612 26.6063 21.804C25.1635 23.2468 23.2066 24.0574 21.1662 24.0574C19.1257 24.0574 17.1688 23.2468 15.726 21.804C14.2832 20.3612 13.4727 18.4044 13.4727 16.3639C13.4727 14.3235 14.2832 12.3666 15.726 10.9238C17.1688 9.48097 19.1257 8.67041 21.1662 8.67041C23.2066 8.67041 25.1635 9.48097 26.6063 10.9238C28.0491 12.3666 28.8597 14.3235 28.8597 16.3639ZM25.0129 16.3639C25.0129 17.3841 24.6076 18.3626 23.8862 19.084C23.1648 19.8054 22.1864 20.2107 21.1662 20.2107C20.1459 20.2107 19.1675 19.8054 18.4461 19.084C17.7247 18.3626 17.3194 17.3841 17.3194 16.3639C17.3194 15.3437 17.7247 14.3653 18.4461 13.6438C19.1675 12.9224 20.1459 12.5172 21.1662 12.5172C22.1864 12.5172 23.1648 12.9224 23.8862 13.6438C24.6076 14.3653 25.0129 15.3437 25.0129 16.3639Z" fill="#FDFBF6"/>
<path fill-rule="evenodd" clip-rule="evenodd" d="M21.1669 0.976074C9.48239 0.976074 0.00976562 10.4487 0.00976562 22.1332C0.00976562 33.8177 9.48239 43.2903 21.1669 43.2903C32.8514 43.2903 42.324 33.8177 42.324 22.1332C42.324 10.4487 32.8514 0.976074 21.1669 0.976074ZM3.85652 22.1332C3.85652 26.1531 5.22788 29.8536 7.52631 32.7925C9.14088 30.6732 11.2233 28.9557 13.6112 27.7739C15.999 26.5922 18.6276 25.9782 21.2919 25.9799C23.9219 25.9769 26.5178 26.5745 28.8818 27.7271C31.2457 28.8797 33.3152 30.557 34.9325 32.631C36.599 30.4453 37.7211 27.8941 38.2059 25.1887C38.6907 22.4832 38.5243 19.7012 37.7204 17.0728C36.9166 14.4444 35.4984 12.0452 33.5832 10.0737C31.668 8.10223 29.3109 6.61514 26.7069 5.73548C24.1029 4.85583 21.3269 4.60889 18.6085 5.01511C15.8902 5.42133 13.3076 6.46902 11.0745 8.07151C8.84142 9.67399 7.02203 11.7852 5.76687 14.2304C4.51171 16.6757 3.85686 19.3846 3.85652 22.1332ZM21.1669 39.4436C17.193 39.45 13.339 38.0829 10.2575 35.5737C11.4977 33.7977 13.1487 32.3477 15.0699 31.347C16.9912 30.3464 19.1257 29.8248 21.2919 29.8267C23.431 29.8248 25.5397 30.3334 27.4428 31.3102C29.3459 32.287 30.9885 33.7038 32.234 35.443C29.1286 38.0337 25.2111 39.4499 21.1669 39.4436Z" fill="#FDFBF6"/>
</svg>
