<svg width="56" height="56" viewBox="0 0 56 56" fill="none" xmlns="http://www.w3.org/2000/svg">
<path d="M49.001 45.3578C51.7917 42.0001 53.7327 38.0196 54.6597 33.7531C55.5867 29.4866 55.4725 25.0596 54.3268 20.8466C53.181 16.6336 51.0374 12.7585 48.0773 9.54909C45.1171 6.33973 41.4275 3.89053 37.3207 2.40867C33.2138 0.926812 28.8104 0.455897 24.483 1.03576C20.1557 1.61562 16.0316 3.2292 12.4597 5.74001C8.88786 8.25081 5.97325 11.585 3.96247 15.4604C1.9517 19.3359 0.903901 23.6386 0.907725 28.0047C0.909359 34.3516 3.14599 40.4953 7.2252 45.3578L7.18633 45.3908C7.32236 45.5541 7.47782 45.694 7.61773 45.8553C7.79262 46.0554 7.98112 46.2439 8.16184 46.4382C8.70336 47.0303 9.2669 47.5938 9.85246 48.1289C10.0338 48.2895 10.2152 48.4463 10.3966 48.5991C11.0184 49.1368 11.6597 49.6433 12.3204 50.1187C12.4059 50.177 12.4836 50.2528 12.5691 50.3131V50.2897C17.1203 53.4928 22.5497 55.2119 28.115 55.2119C33.6803 55.2119 39.1098 53.4928 43.6609 50.2897V50.3131C43.7464 50.2528 43.8222 50.177 43.9097 50.1187C44.5704 49.642 45.2117 49.1355 45.8335 48.5991C46.0149 48.445 46.1962 48.2882 46.3776 48.1289C46.9619 47.5938 47.5254 47.0303 48.0682 46.4382C48.2489 46.2439 48.4355 46.0554 48.6123 45.8553C48.7503 45.694 48.9077 45.5541 49.0437 45.3889L49.001 45.3578ZM28.1131 12.4587C29.8426 12.4587 31.5333 12.9716 32.9713 13.9325C34.4094 14.8933 35.5302 16.2591 36.192 17.8569C36.8539 19.4548 37.0271 21.213 36.6896 22.9093C36.3522 24.6056 35.5194 26.1637 34.2964 27.3867C33.0735 28.6096 31.5154 29.4425 29.8191 29.7799C28.1228 30.1173 26.3645 29.9441 24.7667 29.2823C23.1688 28.6204 21.8031 27.4996 20.8422 26.0616C19.8814 24.6235 19.3685 22.9328 19.3685 21.2033C19.3685 18.8841 20.2898 16.6599 21.9297 15.02C23.5697 13.38 25.7939 12.4587 28.1131 12.4587ZM12.5808 45.3578C12.6145 42.8063 13.6514 40.3706 15.4672 38.5777C17.283 36.7848 19.7316 35.7789 22.2834 35.7776H33.9428C36.4946 35.7789 38.9432 36.7848 40.759 38.5777C42.5748 40.3706 43.6117 42.8063 43.6454 45.3578C39.3836 49.1983 33.85 51.3237 28.1131 51.3237C22.3761 51.3237 16.8426 49.1983 12.5808 45.3578Z" fill="#FF0099"/>
</svg>
